<?xml version="1.0" encoding="utf-8"?>
<svg id="master-artboard" viewBox="0 0 1400 980" version="1.0" xmlns="http://www.w3.org/2000/svg" x="0px" y="0px" enable-background="new 0 0 1400 980" width="1400px" height="980px">

<g opacity="0.1" transform="matrix(2.7099967002868657, 0, 0, 2.7099967002868657, -858.9346259391009, -254.18053600201682)">
	<path d="M695.6,198c0-0.5,0-1.1-0.1-1.6c0-0.4-0.1-0.8-0.1-1.2c0-0.1,0-0.2,0-0.3c-0.1-0.5-0.2-1-0.3-1.5c0,0,0,0,0,0&#10;&#9;&#9;c-0.1-0.5-0.2-1-0.4-1.6c0,0,0-0.1,0-0.1c-0.1-0.4-0.3-0.9-0.4-1.3c-0.1-0.2-0.2-0.5-0.2-0.7c-0.1-0.2-0.2-0.4-0.2-0.6&#10;&#9;&#9;c-2.2-5.5-6.4-10.6-13.2-13c0.8-2.7,1.2-5.5,1.2-8.4c0-15-11.3-27.4-25.8-29.2c-3.1-6.1-9.4-10.3-16.6-10.6&#10;&#9;&#9;c-4.3-7.7-12.6-13-22.1-13c-5.7,0-10.9,1.9-15.1,5c-3.4-1.7-7.2-2.6-11.2-2.6c-9.3,0-17.4,5-21.8,12.5&#10;&#9;&#9;c-5.4-6.2-13.4-10.1-22.2-10.1c-14,0-25.8,9.8-28.8,23c-15.3,1.1-27.3,13.8-27.3,29.4c0,0.4,0,0.7,0,1.1&#10;&#9;&#9;c-12.4,3.5-21.5,14.9-21.5,28.4c0,3.9,0.8,7.6,2.1,11c-9.1,5-15.2,14.7-15.2,25.8c0,6.7,2.3,12.9,6.1,17.9&#10;&#9;&#9;c-3.8,5-6.1,11.2-6.1,17.9c0,11.4,6.5,21.3,16,26.2h0c0,0,0,0,0,0c0.5,0.3,1,0.5,1.5,0.7c0,0,0,0,0,0c1.6,0.7,3.2,1.3,4.9,1.7&#10;&#9;&#9;c0.1,0,0.1,0,0.2,0c0.5,0.1,0.9,0.2,1.4,0.3c0.1,0,0.3,0.1,0.4,0.1c0.4,0.1,0.8,0.1,1.2,0.2c0.2,0,0.3,0,0.5,0.1&#10;&#9;&#9;c0.4,0,0.8,0.1,1.2,0.1c0.2,0,0.3,0,0.5,0c0.6,0,1.1,0.1,1.7,0.1c2.8,0,5.5-0.4,8.1-1.1c5.5,7.3,13.5,12.6,22.7,14.8h0c0,0,0,0,0,0&#10;&#9;&#9;c1.5,0.3,3,0.6,4.5,0.8c0.1,0,0.2,0,0.3,0c0.7,0.1,1.3,0.1,2,0.2c0.8,0,1.6,0.1,2.4,0.1c0.9,0,1.7,0,2.6-0.1c0.2,0,0.5,0,0.7-0.1&#10;&#9;&#9;c0.7-0.1,1.4-0.1,2-0.2c0.2,0,0.4,0,0.6-0.1c0.8-0.1,1.6-0.3,2.4-0.4c0.3-0.1,0.5-0.1,0.8-0.2c0.6-0.1,1.1-0.3,1.7-0.4&#10;&#9;&#9;c0.3-0.1,0.6-0.2,0.8-0.2c0.7-0.2,1.5-0.5,2.2-0.7c0.2-0.1,0.5-0.2,0.7-0.3c0.4-0.1,0.7-0.3,1.1-0.4c0,0,0,0,0,0c2-0.9,4-1.9,5.8-3&#10;&#9;&#9;c2.1,2.4,4.5,4.6,7.2,6.5c0.3,0.5,0.7,0.9,1,1.4c2.9,4.3,5.1,9.2,6.2,14.3c0.2,0.8,0.4,1.7,0.5,2.6c0.4,2.6,0.6,5.2,0.6,7.9&#10;&#9;&#9;c0,0.9-0.1,1.8-0.1,2.7l-2.2,26.3c-0.1,0.7-0.1,1.3-0.2,2c-0.2,1.2-0.4,2.4-0.6,3.6c-0.2,1-0.4,1.9-0.7,2.8&#10;&#9;&#9;c-0.2,0.9-0.5,1.8-0.8,2.6c-0.2,0.5-0.3,0.9-0.5,1.3c-0.3,0.7-0.6,1.5-0.9,2.2c-1,2.4-2.3,4.6-3.7,6.8c-0.3,0.5-0.6,0.9-0.9,1.4&#10;&#9;&#9;c-1.2,1.7-2.4,3.3-3.8,4.8c-3.2-0.3-6.4-0.5-9.6-0.4c-4.1,0.2-8.3,1.2-11.8,3.4c-0.5,0.3-0.2,1.1,0.4,1c1.5-0.4,3.1-0.5,4.7-0.7&#10;&#9;&#9;c1.2-0.1,1.9,1.2,1.3,2.1c-0.7,1-1.3,2-1.8,3.1c-0.2,0.4,0.3,0.6,0.6,0.3c1.3-1.8,3.3-3.1,5.5-3.9c2.3-0.9,4.7-1.2,7.1-1.4&#10;&#9;&#9;c0.9-0.1,1.5,1,0.9,1.7c-1.5,1.8-2.7,3.7-3.7,5.8c-0.2,0.3,0.3,0.6,0.5,0.3c2-2.5,4.8-4.3,8-5c2.1-0.4,4.3-0.4,6.5-0.4&#10;&#9;&#9;c5-0.1,9.9-0.6,14.8-1.6c2.4-0.5,5-1.3,6.1-3.4h0c-1.1,2.1-1.2,4.8-2.6,6.8c-2.2,3-6.5,3.3-10.2,3c-2.9-0.2-6.1-0.5-8.7,0.5&#10;&#9;&#9;c-0.3,0.1-0.2,0.7,0.2,0.6c2.4-0.3,5,0.4,7,1.9c0.2,0.1,0.4,0.3,0.4,0.5c0.1,0.4-0.2,0.8-0.5,1.1c-1.5,1.3-3.3,2.2-5.3,2.6&#10;&#9;&#9;c-2.4,0.4-5,0.1-7.4,0.5c-2.1,0.4-4,1.5-5.5,3.1c-0.4,0.4,0.1,1.1,0.6,0.9c2.2-1,4.7-1.6,7.2-1.7c0.7,0,1.1,0.8,0.7,1.3&#10;&#9;&#9;c-1.4,2-2.2,4.3-2.5,6.7c0,0.4,0.5,0.6,0.8,0.2c1.6-2.9,4.4-5.1,7.4-6.7c3.6-1.9,7.5-3.1,11.2-4.7c3.7-1.7,7.3-3.9,9.4-7.4&#10;&#9;&#9;c1.4,3.9-0.9,8.3-4.1,10.9c-3.2,2.6-7.2,4-10.8,6c-3,1.6-6,3.9-7.4,7c-0.1,0.3,0.2,0.5,0.5,0.3c1.5-1.7,3.8-2.8,6-3.5&#10;&#9;&#9;c2.4-0.8,4.9-1.2,7.3-2c0.5-0.2,1,0.4,0.8,0.9c-1.4,3.3-3.1,6.5-5.1,9.5c-0.3,0.4,0.2,1,0.7,0.7l2.4-1.6c0.6-0.4,1.4,0,1.4,0.8&#10;&#9;&#9;c0,1.9,0,3.7,0,5.6c0,0.2,0.2,0.2,0.3,0.1l1.7-4.1c0.5-1.3,1.1-2.6,1.3-4c0.2-1,0.3-2.1,0.5-3.2c0.4-2,1.3-3.8,2.2-5.6&#10;&#9;&#9;c1.2-2.3,2.4-4.5,3.7-6.7c0,1.7-0.1,3.4-0.1,5.1c0,2.4-0.5,6.3-0.9,8.6c-0.4,1.7-0.5,2.6-0.5,5c0,0.3,0.4,0.3,0.5,0.1&#10;&#9;&#9;c0.5-1.7,1.1-2.4,2.1-3c1.2-0.7,2.8-0.2,3.2,1.2c0.8,2.6,1,6.7,1.6,8.5c0.1,0.3,0.5,0.2,0.5-0.1c0-2.9,0.7-9.7,0.2-13&#10;&#9;&#9;c-0.3-2-0.6-5.2-0.6-7.2c0-1.7-0.1-3.4-0.1-5.2c1.3,2.2,2.5,4.5,3.7,6.7c0.9,1.8,1.8,3.6,2.2,5.6c0.2,1,0.3,2.1,0.5,3.2&#10;&#9;&#9;c0.3,1.4,0.8,2.7,1.3,4l1.7,4.1c0.1,0.2,0.3,0.1,0.3-0.1c0-1.9,0-3.7,0-5.6c0-0.7,0.8-1.2,1.4-0.8l2.4,1.6c0.4,0.3,0.9-0.2,0.7-0.7&#10;&#9;&#9;c-2-3-3.8-6.2-5.1-9.5c-0.2-0.5,0.3-1,0.8-0.9c2.4,0.8,4.9,1.2,7.3,2c2.2,0.7,4.4,1.8,6,3.5c0.2,0.2,0.6,0,0.5-0.3&#10;&#9;&#9;c-1.4-3.1-4.4-5.3-7.4-7c-3.6-2-7.6-3.4-10.8-6c-3.2-2.6-5.5-7-4.1-10.9c2.1,3.5,5.7,5.7,9.4,7.4c3.7,1.7,7.6,2.8,11.2,4.7&#10;&#9;&#9;c3,1.6,5.8,3.8,7.4,6.7c0.2,0.4,0.8,0.2,0.8-0.2c-0.3-2.4-1.1-4.7-2.5-6.7c-0.4-0.6,0-1.3,0.7-1.3c2.5,0.1,4.9,0.7,7.2,1.7&#10;&#9;&#9;c0.5,0.2,1-0.4,0.6-0.9c-1.5-1.6-3.4-2.7-5.5-3.1c-2.4-0.5-5-0.1-7.4-0.5c-2-0.4-3.8-1.3-5.3-2.6c-0.3-0.3-0.6-0.7-0.5-1.1&#10;&#9;&#9;c0.1-0.2,0.3-0.4,0.4-0.5c1.9-1.5,4.5-2.2,7-1.9c0.4,0,0.5-0.5,0.2-0.6c-2.6-1-5.8-0.7-8.7-0.5c-3.7,0.3-8,0-10.2-3&#10;&#9;&#9;c-1.4-2-1.5-4.6-2.6-6.8h0c1.2,2.1,3.8,2.9,6.1,3.4c4.9,1,9.8,1.5,14.8,1.6c2.2,0,4.4,0,6.5,0.4c3.1,0.7,6,2.5,8,5&#10;&#9;&#9;c0.2,0.3,0.7,0,0.5-0.3c-1-2.1-2.3-4-3.7-5.8c-0.6-0.7,0-1.8,0.9-1.7c2.4,0.2,4.8,0.5,7.1,1.4c2.1,0.8,4.1,2.2,5.5,3.9&#10;&#9;&#9;c0.2,0.3,0.7,0,0.6-0.3c-0.5-1.1-1.1-2.1-1.8-3.1c-0.7-1,0.1-2.3,1.3-2.1c1.6,0.2,3.2,0.4,4.7,0.7c0.6,0.1,1-0.7,0.4-1&#10;&#9;&#9;c-3.5-2.2-7.7-3.1-11.8-3.4c-3.5-0.2-7.1,0.1-10.6,0.4c-7.4-7.6-12.4-17.4-13.9-28.3l-7.3-52.6c1.7-1,3.3-2,4.8-3.2c0,0,0,0,0,0&#10;&#9;&#9;l0,0c0.1-0.1,0.2-0.1,0.3-0.2c0.3,0.1,0.5,0.1,0.8,0.2c0,0,0,0,0,0c0,0,0,0,0,0c0.7,0.2,1.5,0.3,2.2,0.5c0,0,0,0,0,0&#10;&#9;&#9;c0.7,0.1,1.4,0.2,2.2,0.3c0.2,0,0.4,0,0.5,0.1c0.6,0.1,1.2,0.1,1.8,0.2c0.8,0,1.6,0.1,2.4,0.1c12.6,0,23.9-5.9,31.2-15&#10;&#9;&#9;c11.3-1.8,20-11.6,20-23.4c0-3.2-0.7-6.3-1.8-9.2c7.5-2.1,13.1-9.1,13.1-17.3c0-1-0.1-2-0.3-3c12.8-2,22.5-13.1,22.5-26.4&#10;&#9;&#9;c0-5.4-1.6-10.4-4.3-14.6C694.6,205.7,695.6,201.9,695.6,198z"/>
	
	
	
	
	
	
	
</g>

<g transform="matrix(2.7099967002868657, 0, 0, 2.7099967002868657, -858.9346259391009, -254.18053600201682)">
	<g>
		<path fill="#8FB44A" d="M687.1,213.7c0-5.4-1.6-10.4-4.3-14.6c1.8-3.4,2.8-7.2,2.8-11.2c0-10-6.1-18.6-14.9-22.1&#10;&#9;&#9;&#9;c0.8-2.7,1.2-5.5,1.2-8.4c0-15-11.3-27.4-25.8-29.2c-3.1-6.1-9.4-10.3-16.6-10.6c-4.3-7.7-12.6-13-22.1-13c-5.7,0-10.9,1.9-15.1,5&#10;&#9;&#9;&#9;c-3.4-1.7-7.2-2.6-11.2-2.6c-9.3,0-17.4,5-21.8,12.5c-5.4-6.2-13.4-10.1-22.2-10.1c-14,0-25.8,9.8-28.8,23&#10;&#9;&#9;&#9;c-15.3,1.1-27.3,13.8-27.3,29.4c0,0.4,0,0.7,0,1.1c-12.4,3.5-21.5,14.9-21.5,28.4c0,3.9,0.8,7.6,2.1,11&#10;&#9;&#9;&#9;c-9.1,5-15.2,14.7-15.2,25.8c0,6.7,2.3,12.9,6.1,17.9c-3.8,5-6.1,11.2-6.1,17.9c0,16.3,13.2,29.5,29.5,29.5c2.8,0,5.5-0.4,8.1-1.1&#10;&#9;&#9;&#9;c7.3,9.6,18.9,15.9,31.9,15.9c7.9,0,15.2-2.3,21.4-6.2c7.3,8.4,18.1,13.8,30.2,13.8c9.5,0,18.1-3.3,25-8.8c3.2,0.8,6.5,1.3,10,1.3&#10;&#9;&#9;&#9;c12.6,0,23.9-5.9,31.2-15c11.3-1.8,20-11.6,20-23.4c0-3.2-0.7-6.3-1.8-9.2c7.5-2.1,13.1-9.1,13.1-17.3c0-1-0.1-2-0.3-3&#10;&#9;&#9;&#9;C677.4,238.1,687.1,227,687.1,213.7z"/>
		<g>
			<path fill="#84A544" d="M473.8,288.9c-2.6,0.8-5.3,1.3-8.1,1.3c-1.1,0-2.2-0.1-3.3-0.2c4,2.1,8.6,3.3,13.5,3.3c0.4,0,0.8,0,1.2,0&#10;&#9;&#9;&#9;&#9;C475.9,291.9,474.8,290.5,473.8,288.9z"/>
			<path fill="#84A544" d="M527.1,299.9c-5.9,4.3-12.9,6.8-20.4,7.1c2.9,0.7,6,1.1,9.1,1.1c5.6,0,10.8-1.1,15.6-3.2&#10;&#9;&#9;&#9;&#9;C529.9,303.3,528.4,301.7,527.1,299.9z"/>
			<path fill="#84A544" d="M687.1,213.7c0-5.4-1.6-10.4-4.3-14.6c1.8-3.4,2.8-7.2,2.8-11.2c0-8.1-4.5-18.3-14.9-22.1&#10;&#9;&#9;&#9;&#9;c0,0.7,7.2,12.5,6.3,33.8c-0.7,15.2-9.8,27.8-22.5,30.1c0.2,1.1,0.3,2.3,0.3,3.4c0,9.3-8.4,19-16,21.4&#10;&#9;&#9;&#9;&#9;c3.1,15.3-3.9,33.3-15.3,35.3c-7.1,10.1-18,16.7-30.2,17c2.9,0.7,6,1.1,9.2,1.1c12.6,0,23.9-5.9,31.2-15&#10;&#9;&#9;&#9;&#9;c11.3-1.8,20-11.6,20-23.4c0-3.2-0.7-6.3-1.8-9.2c7.5-2.1,13.1-9.1,13.1-17.3c0-1-0.1-2-0.3-3C677.4,238.1,687.1,227,687.1,213.7&#10;&#9;&#9;&#9;&#9;z"/>
			<path fill="#84A544" d="M582.2,305.6c-5.6,5.1-12.5,8.6-20,9.6c1.7,0.2,3.5,0.4,5.2,0.4c9.3,0,17.9-3.2,24.7-8.6&#10;&#9;&#9;&#9;&#9;C588.7,307,585.4,306.5,582.2,305.6z"/>
		</g>
		<path fill="#84A544" d="M483.9,266.7c16.9-16.7-5.4-29.8-5.4-29.8c14.3-26.8,44.5-10.8,44.5-10.8c2.5-11-13.9-17.4-13.9-17.4&#10;&#9;&#9;&#9;c14.1-10.9,3.8-21,3.8-21c14.5-9.7,13.7-26.6,13.7-26.6c38.3-11.3,32.7-41.6,32.7-41.6c-5.4-6.2-13.4-10.1-22.2-10.1&#10;&#9;&#9;&#9;c-14,0-25.8,9.8-28.8,23c-15.3,1.1-27.3,13.8-27.3,29.4c0,0.4,0,0.7,0,1.1c-12.4,3.5-21.5,14.9-21.5,28.4c0,3.9,0.8,7.6,2.1,11&#10;&#9;&#9;&#9;c-9.1,5-15.2,14.7-15.2,25.8c0,6.7,2.3,12.9,6.1,17.9c-3.8,5-6.1,11.2-6.1,17.9c0,16.3,13.2,29.5,29.5,29.5c2.8,0,5.5-0.4,8.1-1.1&#10;&#9;&#9;&#9;c7.3,9.6,18.9,15.9,31.9,15.9c7.9,0,15.2-2.3,21.4-6.2C510,304.6,483.9,266.7,483.9,266.7z"/>
		<path fill="#BA995B" d="M609.5,391.9h-72c7.3-7.7,12-17.7,12.9-28.5l2.2-26.3c1.2-14.3-4.9-28.2-16.2-37l-29-17l4.5-2.1l24.2,8.5&#10;&#9;&#9;&#9;c5.7,2,11.8,1.2,16.8-2.1c5-3.3,8.1-8.6,8.5-14.6l1.1-16.5c0.6-9-1.6-17.8-6.1-25.3c7.5,2.7,16.1,1.2,22.2-4.2&#10;&#9;&#9;&#9;c-2,7.8-2.5,16-1.5,24.5l1,8.4c0.4,3.1,2.4,5.8,5.4,6.9c3,1.1,6.3,0.5,8.6-1.6l11.2-10l3.8-0.4L595,267.7&#10;&#9;&#9;&#9;c-7.2,11.1-10.1,24.5-8.3,37.6l8,57.5C596.3,374.1,601.6,384.2,609.5,391.9L609.5,391.9z"/>
		<path fill="#A88A53" d="M555.6,373.3c2.7-9.1,1.8-20.4,2.9-39.3c1.1-18.9-3.6-23.6-5.6-28.1c-1.6-3.5-29.9-18-42.5-24.3l-2.8,1.3&#10;&#9;&#9;&#9;l29,17c11.3,8.9,17.4,22.7,16.2,37l-2.2,26.3c-0.9,10.8-5.6,20.9-12.9,28.5h9C549.8,386.8,553.8,379.3,555.6,373.3z"/>
		<path fill="#A88A53" d="M550.5,288.7c5.1,0.7,18-4,16.1-32.4c-0.4-5.3-2-16.6-3.6-24.1c-2.2-0.1-4.4-0.5-6.5-1.3&#10;&#9;&#9;&#9;c4.5,7.6,6.7,16.4,6.1,25.3l-1.1,16.5c-0.4,6-3.5,11.3-8.5,14.6C552.1,287.8,551.3,288.3,550.5,288.7&#10;&#9;&#9;&#9;C550.4,288.7,550.4,288.7,550.5,288.7z"/>
		<path fill="#84A544" d="M609.2,226.2c-1.4,3.7-8.3,6.5-16.6,6.5c-5.3,0-10.1-1.2-13.2-2.9c6.2-2.3,10.2-5.8,10.2-9.7&#10;&#9;&#9;&#9;c0-0.8-0.2-1.5-0.4-2.2c-1.4,3.7-6.4,6.8-13.1,8.5c0,0,0-0.1-0.1-0.1c0,0,0,0.1,0,0.1c-3.8,1-8.2,1.5-12.8,1.5&#10;&#9;&#9;&#9;c-13,0-23.8-4.4-26-10.1c-0.3,0.7-0.4,1.5-0.4,2.2c0,6.8,11.9,12.3,26.5,12.3c5.1,0,9.8-0.7,13.8-1.8c2.5,2.9,8.6,4.9,15.7,4.9&#10;&#9;&#9;&#9;c9.3,0,16.9-3.5,16.9-7.9C609.5,227.2,609.4,226.7,609.2,226.2z"/>
		<path fill="#84A544" d="M656.4,252.4c-1.4,3.7-8.3,6.5-16.6,6.5c-5.3,0-10.1-1.2-13.1-2.9c6.2-2.3,10.2-5.8,10.2-9.7&#10;&#9;&#9;&#9;c0-0.8-0.2-1.5-0.4-2.2c-1.4,3.7-6.4,6.8-13.1,8.5c0,0,0-0.1-0.1-0.1c0,0,0,0.1,0,0.1c-3.8,1-8.2,1.5-12.8,1.5&#10;&#9;&#9;&#9;c-13,0-23.8-4.4-26-10.1c-0.3,0.7-0.4,1.5-0.4,2.2c0,6.8,11.9,12.3,26.5,12.3c5.1,0,9.8-0.7,13.8-1.8c2.5,2.9,8.6,4.9,15.7,4.9&#10;&#9;&#9;&#9;c9.3,0,16.9-3.5,16.9-7.9C656.7,253.3,656.6,252.9,656.4,252.4z"/>
		<path fill="#84A544" d="M571.4,180.7c1.4,3.7,8.3,6.5,16.6,6.5c5.3,0,10.1-1.2,13.1-2.9c-6.2-2.3-10.2-5.8-10.2-9.7&#10;&#9;&#9;&#9;c0-0.8,0.2-1.5,0.4-2.2c1.4,3.7,6.4,6.8,13.1,8.5c0,0,0-0.1,0.1-0.1c0,0,0,0.1,0,0.1c3.8,1,8.2,1.5,12.8,1.5&#10;&#9;&#9;&#9;c13,0,23.8-4.4,26-10.1c0.3,0.7,0.4,1.5,0.4,2.2c0,6.8-11.9,12.3-26.5,12.3c-5.1,0-9.8-0.7-13.8-1.8c-2.5,2.9-8.6,4.9-15.7,4.9&#10;&#9;&#9;&#9;c-9.3,0-16.9-3.5-16.9-7.9C571.1,181.6,571.2,181.1,571.4,180.7z"/>
		<path fill="#84A544" d="M652.7,135.2c-1.4,3.7-8.3,6.5-16.6,6.5c-5.3,0-10.1-1.2-13.1-2.9c6.2-2.3,10.2-5.8,10.2-9.7&#10;&#9;&#9;&#9;c0-0.8-0.2-1.5-0.4-2.2c-1.4,3.7-6.4,6.8-13.1,8.5c0,0,0-0.1-0.1-0.1c0,0,0,0.1,0,0.1c-3.8,1-8.2,1.5-12.8,1.5&#10;&#9;&#9;&#9;c-13,0-23.8-4.4-26-10.1c-0.3,0.7-0.4,1.5-0.4,2.2c0,6.8,11.9,12.3,26.5,12.3c5.1,0,9.8-0.7,13.8-1.8c2.5,2.9,8.6,4.9,15.7,4.9&#10;&#9;&#9;&#9;c9.3,0,16.9-3.5,16.9-7.9C653,136.1,652.9,135.6,652.7,135.2z"/>
		<path fill="#84A544" d="M555.2,272.4c-1.4,3.7-8.3,6.5-16.6,6.5c-5.3,0-10.1-1.2-13.1-2.9c6.2-2.3,10.2-5.8,10.2-9.7&#10;&#9;&#9;&#9;c0-0.8-0.2-1.5-0.4-2.2c-1.4,3.7-6.4,6.8-13.1,8.5c0,0,0-0.1-0.1-0.1c0,0,0,0.1,0,0.1c-3.8,1-8.2,1.5-12.8,1.5&#10;&#9;&#9;&#9;c-13,0-23.8-4.4-26-10.1c-0.3,0.7-0.4,1.5-0.4,2.2c0,6.8,11.9,12.3,26.5,12.3c5.1,0,9.8-0.7,13.8-1.8c2.5,2.9,8.6,4.9,15.7,4.9&#10;&#9;&#9;&#9;c9.3,0,16.9-3.5,16.9-7.9C555.5,273.3,555.4,272.9,555.2,272.4z"/>
		
	</g>
	
	
	
	
	
	
	
</g></svg>